G04 #@! TF.GenerationSoftware,KiCad,Pcbnew,7.0.10-7.0.10~ubuntu22.04.1*
G04 #@! TF.CreationDate,2024-01-11T23:20:31+00:00*
G04 #@! TF.ProjectId,test123,74657374-3132-4332-9e6b-696361645f70,a*
G04 #@! TF.SameCoordinates,Original*
G04 #@! TF.FileFunction,Profile,NP*
%FSLAX46Y46*%
G04 Gerber Fmt 4.6, Leading zero omitted, Abs format (unit mm)*
G04 Created by KiCad (PCBNEW 7.0.10-7.0.10~ubuntu22.04.1) date 2024-01-11 23:20:31*
%MOMM*%
%LPD*%
G01*
G04 APERTURE LIST*
G04 #@! TA.AperFunction,Profile*
%ADD10C,0.200000*%
G04 #@! TD*
G04 APERTURE END LIST*
D10*
X130421247Y28765136D02*
G75*
G03*
X127421249Y28765136I-1499999J0D01*
G01*
X127421249Y28765136D02*
G75*
G03*
X130421247Y28765136I1499999J0D01*
G01*
X42875461Y130615137D02*
X51446048Y130615137D01*
X54321248Y26679350D02*
X55735461Y25265137D01*
X201601248Y38125052D02*
G75*
G03*
X192601248Y29125137I-48J-8999952D01*
G01*
X205461248Y63115136D02*
X205461248Y39539350D01*
X67501248Y143265137D02*
X179421248Y143265137D01*
X204047034Y130615137D02*
X195261295Y130619658D01*
X203361248Y127115137D02*
G75*
G03*
X200361248Y127115137I-1500000J0D01*
G01*
X200361248Y127115137D02*
G75*
G03*
X203361248Y127115137I1500000J0D01*
G01*
X201601248Y38125137D02*
X204047034Y38125137D01*
X41461248Y129200923D02*
X42875461Y130615136D01*
X179421248Y143265137D02*
X190761248Y141265137D01*
X205461248Y129200923D02*
X204047034Y130615136D01*
X192461248Y35019957D02*
G75*
G03*
X189461248Y35019957I-1500000J0D01*
G01*
X189461248Y35019957D02*
G75*
G03*
X192461248Y35019957I1500000J0D01*
G01*
X205461248Y129200923D02*
X205461248Y66115136D01*
X45321248Y38125136D02*
X42875461Y38125136D01*
X203161048Y63115137D02*
X205461248Y63115137D01*
X192601248Y29125137D02*
X192601248Y26679350D01*
X55735461Y25265136D02*
X191187034Y25265137D01*
X41461247Y39539350D02*
X42875461Y38125136D01*
X56146048Y141265137D02*
X56161146Y135129888D01*
X190761261Y135057136D02*
G75*
G03*
X195261295Y130619659I4546939J110564D01*
G01*
X205461248Y39539350D02*
X204047034Y38125137D01*
X51446045Y130615052D02*
G75*
G03*
X56161146Y135129888I169955J4542048D01*
G01*
X203161048Y66108463D02*
G75*
G03*
X203161048Y63115137I-48J-1496663D01*
G01*
X41461248Y129200923D02*
X41461248Y66115136D01*
X54321236Y29125136D02*
G75*
G03*
X45321248Y38125136I-9000036J-36D01*
G01*
X190761248Y141265137D02*
X190761248Y135057136D01*
X54321248Y29125136D02*
X54321248Y26679350D01*
X43761248Y63121726D02*
X41466048Y63127136D01*
X43761248Y63121664D02*
G75*
G03*
X43761248Y66115136I-48J1496736D01*
G01*
X46561248Y127115137D02*
G75*
G03*
X43561248Y127115137I-1500000J0D01*
G01*
X43561248Y127115137D02*
G75*
G03*
X46561248Y127115137I1500000J0D01*
G01*
X114221248Y28765136D02*
G75*
G03*
X111221248Y28765136I-1500000J0D01*
G01*
X111221248Y28765136D02*
G75*
G03*
X114221248Y28765136I1500000J0D01*
G01*
X57461248Y35019957D02*
G75*
G03*
X54461248Y35019957I-1500000J0D01*
G01*
X54461248Y35019957D02*
G75*
G03*
X57461248Y35019957I1500000J0D01*
G01*
X67501248Y143265137D02*
X56146048Y141265137D01*
X43761248Y66115136D02*
X41461248Y66115136D01*
X203161048Y66108547D02*
X205461248Y66115137D01*
X41466048Y63127136D02*
X41461248Y39539350D01*
X192601248Y26679350D02*
X191187034Y25265137D01*
M02*
