G04 #@! TF.GenerationSoftware,KiCad,Pcbnew,7.0.10-7.0.10~ubuntu22.04.1*
G04 #@! TF.CreationDate,2024-01-11T23:20:31+00:00*
G04 #@! TF.ProjectId,test123,74657374-3132-4332-9e6b-696361645f70,a*
G04 #@! TF.SameCoordinates,Original*
G04 #@! TF.FileFunction,Legend,Top*
G04 #@! TF.FilePolarity,Positive*
%FSLAX46Y46*%
G04 Gerber Fmt 4.6, Leading zero omitted, Abs format (unit mm)*
G04 Created by KiCad (PCBNEW 7.0.10-7.0.10~ubuntu22.04.1) date 2024-01-11 23:20:31*
%MOMM*%
%LPD*%
G01*
G04 APERTURE LIST*
%ADD10C,0.150000*%
%ADD11C,0.170000*%
%ADD12C,0.254000*%
%ADD13C,0.127000*%
%ADD14C,0.120000*%
%ADD15C,0.203200*%
%ADD16C,0.200000*%
%ADD17C,0.100000*%
%ADD18C,0.500000*%
G04 APERTURE END LIST*
D10*
X105960305Y78686781D02*
X105960305Y79686781D01*
X105960305Y79686781D02*
X106341257Y79686781D01*
X106341257Y79686781D02*
X106436495Y79639162D01*
X106436495Y79639162D02*
X106484114Y79591543D01*
X106484114Y79591543D02*
X106531733Y79496305D01*
X106531733Y79496305D02*
X106531733Y79353448D01*
X106531733Y79353448D02*
X106484114Y79258210D01*
X106484114Y79258210D02*
X106436495Y79210591D01*
X106436495Y79210591D02*
X106341257Y79162972D01*
X106341257Y79162972D02*
X105960305Y79162972D01*
X107484114Y78686781D02*
X106912686Y78686781D01*
X107198400Y78686781D02*
X107198400Y79686781D01*
X107198400Y79686781D02*
X107103162Y79543924D01*
X107103162Y79543924D02*
X107007924Y79448686D01*
X107007924Y79448686D02*
X106912686Y79401067D01*
D11*
X120748492Y92978020D02*
X120475159Y93368496D01*
X120279921Y92978020D02*
X120279921Y93798020D01*
X120279921Y93798020D02*
X120592302Y93798020D01*
X120592302Y93798020D02*
X120670397Y93758972D01*
X120670397Y93758972D02*
X120709444Y93719925D01*
X120709444Y93719925D02*
X120748492Y93641829D01*
X120748492Y93641829D02*
X120748492Y93524687D01*
X120748492Y93524687D02*
X120709444Y93446591D01*
X120709444Y93446591D02*
X120670397Y93407544D01*
X120670397Y93407544D02*
X120592302Y93368496D01*
X120592302Y93368496D02*
X120279921Y93368496D01*
X121529444Y92978020D02*
X121060873Y92978020D01*
X121295159Y92978020D02*
X121295159Y93798020D01*
X121295159Y93798020D02*
X121217063Y93680877D01*
X121217063Y93680877D02*
X121138968Y93602782D01*
X121138968Y93602782D02*
X121060873Y93563734D01*
D10*
X123736733Y97801781D02*
X123403400Y98277972D01*
X123165305Y97801781D02*
X123165305Y98801781D01*
X123165305Y98801781D02*
X123546257Y98801781D01*
X123546257Y98801781D02*
X123641495Y98754162D01*
X123641495Y98754162D02*
X123689114Y98706543D01*
X123689114Y98706543D02*
X123736733Y98611305D01*
X123736733Y98611305D02*
X123736733Y98468448D01*
X123736733Y98468448D02*
X123689114Y98373210D01*
X123689114Y98373210D02*
X123641495Y98325591D01*
X123641495Y98325591D02*
X123546257Y98277972D01*
X123546257Y98277972D02*
X123165305Y98277972D01*
X124117686Y98706543D02*
X124165305Y98754162D01*
X124165305Y98754162D02*
X124260543Y98801781D01*
X124260543Y98801781D02*
X124498638Y98801781D01*
X124498638Y98801781D02*
X124593876Y98754162D01*
X124593876Y98754162D02*
X124641495Y98706543D01*
X124641495Y98706543D02*
X124689114Y98611305D01*
X124689114Y98611305D02*
X124689114Y98516067D01*
X124689114Y98516067D02*
X124641495Y98373210D01*
X124641495Y98373210D02*
X124070067Y97801781D01*
X124070067Y97801781D02*
X124689114Y97801781D01*
X103858161Y91056543D02*
X103762923Y91104162D01*
X103762923Y91104162D02*
X103667685Y91199400D01*
X103667685Y91199400D02*
X103524828Y91342258D01*
X103524828Y91342258D02*
X103429590Y91389877D01*
X103429590Y91389877D02*
X103334352Y91389877D01*
X103381971Y91151781D02*
X103286733Y91199400D01*
X103286733Y91199400D02*
X103191495Y91294639D01*
X103191495Y91294639D02*
X103143876Y91485115D01*
X103143876Y91485115D02*
X103143876Y91818448D01*
X103143876Y91818448D02*
X103191495Y92008924D01*
X103191495Y92008924D02*
X103286733Y92104162D01*
X103286733Y92104162D02*
X103381971Y92151781D01*
X103381971Y92151781D02*
X103572447Y92151781D01*
X103572447Y92151781D02*
X103667685Y92104162D01*
X103667685Y92104162D02*
X103762923Y92008924D01*
X103762923Y92008924D02*
X103810542Y91818448D01*
X103810542Y91818448D02*
X103810542Y91485115D01*
X103810542Y91485115D02*
X103762923Y91294639D01*
X103762923Y91294639D02*
X103667685Y91199400D01*
X103667685Y91199400D02*
X103572447Y91151781D01*
X103572447Y91151781D02*
X103381971Y91151781D01*
X104762923Y91151781D02*
X104191495Y91151781D01*
X104477209Y91151781D02*
X104477209Y92151781D01*
X104477209Y92151781D02*
X104381971Y92008924D01*
X104381971Y92008924D02*
X104286733Y91913686D01*
X104286733Y91913686D02*
X104191495Y91866067D01*
X58154819Y128766667D02*
X58869104Y128766667D01*
X58869104Y128766667D02*
X59011961Y128719048D01*
X59011961Y128719048D02*
X59107200Y128623810D01*
X59107200Y128623810D02*
X59154819Y128480953D01*
X59154819Y128480953D02*
X59154819Y128385715D01*
X59154819Y129766667D02*
X59154819Y129195239D01*
X59154819Y129480953D02*
X58154819Y129480953D01*
X58154819Y129480953D02*
X58297676Y129385715D01*
X58297676Y129385715D02*
X58392914Y129290477D01*
X58392914Y129290477D02*
X58440533Y129195239D01*
X101190466Y123372781D02*
X101190466Y122658496D01*
X101190466Y122658496D02*
X101142847Y122515639D01*
X101142847Y122515639D02*
X101047609Y122420400D01*
X101047609Y122420400D02*
X100904752Y122372781D01*
X100904752Y122372781D02*
X100809514Y122372781D01*
X101571419Y123372781D02*
X102190466Y123372781D01*
X102190466Y123372781D02*
X101857133Y122991829D01*
X101857133Y122991829D02*
X101999990Y122991829D01*
X101999990Y122991829D02*
X102095228Y122944210D01*
X102095228Y122944210D02*
X102142847Y122896591D01*
X102142847Y122896591D02*
X102190466Y122801353D01*
X102190466Y122801353D02*
X102190466Y122563258D01*
X102190466Y122563258D02*
X102142847Y122468020D01*
X102142847Y122468020D02*
X102095228Y122420400D01*
X102095228Y122420400D02*
X101999990Y122372781D01*
X101999990Y122372781D02*
X101714276Y122372781D01*
X101714276Y122372781D02*
X101619038Y122420400D01*
X101619038Y122420400D02*
X101571419Y122468020D01*
D12*
X94677480Y75708268D02*
X94677480Y75284934D01*
X95342718Y75284934D02*
X94072718Y75284934D01*
X94072718Y75284934D02*
X94072718Y75889696D01*
X94072718Y76252553D02*
X94072718Y77038744D01*
X94072718Y77038744D02*
X94556527Y76615410D01*
X94556527Y76615410D02*
X94556527Y76796839D01*
X94556527Y76796839D02*
X94617003Y76917791D01*
X94617003Y76917791D02*
X94677480Y76978267D01*
X94677480Y76978267D02*
X94798432Y77038744D01*
X94798432Y77038744D02*
X95100813Y77038744D01*
X95100813Y77038744D02*
X95221765Y76978267D01*
X95221765Y76978267D02*
X95282242Y76917791D01*
X95282242Y76917791D02*
X95342718Y76796839D01*
X95342718Y76796839D02*
X95342718Y76433982D01*
X95342718Y76433982D02*
X95282242Y76313029D01*
X95282242Y76313029D02*
X95221765Y76252553D01*
D10*
X87480819Y115634667D02*
X88195104Y115634667D01*
X88195104Y115634667D02*
X88337961Y115587048D01*
X88337961Y115587048D02*
X88433200Y115491810D01*
X88433200Y115491810D02*
X88480819Y115348953D01*
X88480819Y115348953D02*
X88480819Y115253715D01*
X87480819Y116587048D02*
X87480819Y116110858D01*
X87480819Y116110858D02*
X87957009Y116063239D01*
X87957009Y116063239D02*
X87909390Y116110858D01*
X87909390Y116110858D02*
X87861771Y116206096D01*
X87861771Y116206096D02*
X87861771Y116444191D01*
X87861771Y116444191D02*
X87909390Y116539429D01*
X87909390Y116539429D02*
X87957009Y116587048D01*
X87957009Y116587048D02*
X88052247Y116634667D01*
X88052247Y116634667D02*
X88290342Y116634667D01*
X88290342Y116634667D02*
X88385580Y116587048D01*
X88385580Y116587048D02*
X88433200Y116539429D01*
X88433200Y116539429D02*
X88480819Y116444191D01*
X88480819Y116444191D02*
X88480819Y116206096D01*
X88480819Y116206096D02*
X88433200Y116110858D01*
X88433200Y116110858D02*
X88385580Y116063239D01*
X107000066Y98601781D02*
X107000066Y97887496D01*
X107000066Y97887496D02*
X106952447Y97744639D01*
X106952447Y97744639D02*
X106857209Y97649400D01*
X106857209Y97649400D02*
X106714352Y97601781D01*
X106714352Y97601781D02*
X106619114Y97601781D01*
X107428638Y98506543D02*
X107476257Y98554162D01*
X107476257Y98554162D02*
X107571495Y98601781D01*
X107571495Y98601781D02*
X107809590Y98601781D01*
X107809590Y98601781D02*
X107904828Y98554162D01*
X107904828Y98554162D02*
X107952447Y98506543D01*
X107952447Y98506543D02*
X108000066Y98411305D01*
X108000066Y98411305D02*
X108000066Y98316067D01*
X108000066Y98316067D02*
X107952447Y98173210D01*
X107952447Y98173210D02*
X107381019Y97601781D01*
X107381019Y97601781D02*
X108000066Y97601781D01*
X124166666Y43745181D02*
X124166666Y43030896D01*
X124166666Y43030896D02*
X124119047Y42888039D01*
X124119047Y42888039D02*
X124023809Y42792800D01*
X124023809Y42792800D02*
X123880952Y42745181D01*
X123880952Y42745181D02*
X123785714Y42745181D01*
X125071428Y43745181D02*
X124880952Y43745181D01*
X124880952Y43745181D02*
X124785714Y43697562D01*
X124785714Y43697562D02*
X124738095Y43649943D01*
X124738095Y43649943D02*
X124642857Y43507086D01*
X124642857Y43507086D02*
X124595238Y43316610D01*
X124595238Y43316610D02*
X124595238Y42935658D01*
X124595238Y42935658D02*
X124642857Y42840420D01*
X124642857Y42840420D02*
X124690476Y42792800D01*
X124690476Y42792800D02*
X124785714Y42745181D01*
X124785714Y42745181D02*
X124976190Y42745181D01*
X124976190Y42745181D02*
X125071428Y42792800D01*
X125071428Y42792800D02*
X125119047Y42840420D01*
X125119047Y42840420D02*
X125166666Y42935658D01*
X125166666Y42935658D02*
X125166666Y43173753D01*
X125166666Y43173753D02*
X125119047Y43268991D01*
X125119047Y43268991D02*
X125071428Y43316610D01*
X125071428Y43316610D02*
X124976190Y43364229D01*
X124976190Y43364229D02*
X124785714Y43364229D01*
X124785714Y43364229D02*
X124690476Y43316610D01*
X124690476Y43316610D02*
X124642857Y43268991D01*
X124642857Y43268991D02*
X124595238Y43173753D01*
X157354819Y42166667D02*
X158069104Y42166667D01*
X158069104Y42166667D02*
X158211961Y42119048D01*
X158211961Y42119048D02*
X158307200Y42023810D01*
X158307200Y42023810D02*
X158354819Y41880953D01*
X158354819Y41880953D02*
X158354819Y41785715D01*
X157688152Y43071429D02*
X158354819Y43071429D01*
X157307200Y42833334D02*
X158021485Y42595239D01*
X158021485Y42595239D02*
X158021485Y43214286D01*
D13*
X143800168Y75031601D02*
X143800168Y74777601D01*
X144199311Y74777601D02*
X143437311Y74777601D01*
X143437311Y74777601D02*
X143437311Y75140458D01*
X143509883Y75394458D02*
X143473597Y75430744D01*
X143473597Y75430744D02*
X143437311Y75503315D01*
X143437311Y75503315D02*
X143437311Y75684744D01*
X143437311Y75684744D02*
X143473597Y75757315D01*
X143473597Y75757315D02*
X143509883Y75793601D01*
X143509883Y75793601D02*
X143582454Y75829887D01*
X143582454Y75829887D02*
X143655026Y75829887D01*
X143655026Y75829887D02*
X143763883Y75793601D01*
X143763883Y75793601D02*
X144199311Y75358173D01*
X144199311Y75358173D02*
X144199311Y75829887D01*
X128325168Y96147601D02*
X128325168Y95893601D01*
X128724311Y95893601D02*
X127962311Y95893601D01*
X127962311Y95893601D02*
X127962311Y96256458D01*
X128724311Y96945887D02*
X128724311Y96510458D01*
X128724311Y96728173D02*
X127962311Y96728173D01*
X127962311Y96728173D02*
X128071168Y96655601D01*
X128071168Y96655601D02*
X128143740Y96583030D01*
X128143740Y96583030D02*
X128180026Y96510458D01*
D14*
G04 #@! TO.C,P1*
X105368400Y78221600D02*
X105368400Y75561600D01*
X105662862Y75561600D02*
X105368400Y75561600D01*
X105674027Y78221600D02*
X105368400Y78221600D01*
X107722773Y75561600D02*
X108028400Y75561600D01*
X107733938Y78221600D02*
X108028400Y78221600D01*
X108028400Y75561600D02*
X108028400Y78221600D01*
D15*
G04 #@! TO.C,R1*
X121007344Y91844165D02*
X121407343Y91844154D01*
X121008400Y92590000D02*
X121408400Y92589990D01*
D14*
G04 #@! TO.C,R2*
X121726336Y97346600D02*
X126080464Y97346600D01*
X121726336Y93926600D02*
X126080464Y93926600D01*
G04 #@! TO.C,Q1*
X101003400Y90156600D02*
X101003400Y88346600D01*
X101003400Y88346600D02*
X95878400Y88346600D01*
X101003400Y81566600D02*
X99903400Y81566600D01*
X101003400Y79756600D02*
X101003400Y81566600D01*
X102503400Y90156600D02*
X101003400Y90156600D01*
X102503400Y79756600D02*
X101003400Y79756600D01*
D16*
G04 #@! TO.C,M1*
X152110200Y118217400D02*
X112960200Y118217400D01*
X112960200Y118217400D02*
X112960200Y103317400D01*
X112960200Y103317400D02*
X152110200Y103317400D01*
X152110200Y103317400D02*
X152110200Y118217400D01*
G04 #@! TO.C,M2*
X113648397Y90492405D02*
X124823397Y90531252D01*
X113648397Y84794924D02*
X113648397Y90492405D01*
X113648397Y84794924D02*
X113923401Y84519920D01*
X113923401Y83644926D02*
X113923401Y84519920D01*
X113923401Y83644926D02*
X113923403Y83644923D01*
X113923403Y83644923D02*
X124823397Y83644923D01*
X124823397Y83644923D02*
X124823397Y90531252D01*
D10*
G04 #@! TO.C,J1*
X57700000Y147600000D02*
X187700000Y147600000D01*
X57700000Y126600000D02*
X57700000Y147600000D01*
X187700000Y147600000D02*
X187700000Y126600000D01*
X187700000Y126600000D02*
X57700000Y126600000D01*
D14*
G04 #@! TO.C,J3*
X100193800Y121827600D02*
X101523800Y121827600D01*
X100193800Y120497600D02*
X100193800Y121827600D01*
X100193800Y119227600D02*
X100193800Y106467600D01*
X100193800Y119227600D02*
X102853800Y119227600D01*
X100193800Y106467600D02*
X102853800Y106467600D01*
X102853800Y119227600D02*
X102853800Y106467600D01*
D17*
G04 #@! TO.C,F3*
X95708400Y78181600D02*
X104208400Y78181600D01*
X95708400Y74181600D02*
X95708400Y78181600D01*
X104208400Y78181600D02*
X104208400Y74181600D01*
X104208400Y74181600D02*
X95708400Y74181600D01*
D18*
G04 #@! TO.C,J5*
X86550000Y118350000D02*
X54450000Y118350000D01*
X86550000Y118350000D02*
X86550000Y41450000D01*
X54450000Y118350000D02*
X54450000Y41450000D01*
D14*
X61500000Y118254000D02*
X61500000Y41546000D01*
D18*
X86550000Y41450000D02*
X54450000Y41450000D01*
D14*
G04 #@! TO.C,J2*
X95723400Y94156600D02*
X95723400Y91746600D01*
X95723400Y91746600D02*
X98133400Y91746600D01*
X96023400Y97166600D02*
X96023400Y92046600D01*
X96023400Y92046600D02*
X117643400Y92046600D01*
X117643400Y92046600D02*
X118643400Y93046600D01*
X118643400Y97166600D02*
X96023400Y97166600D01*
X118643400Y93046600D02*
X118643400Y97166600D01*
G04 #@! TO.C,J6*
X94000000Y42200000D02*
X155000000Y42200000D01*
D18*
X94100000Y67250000D02*
X154900000Y67250000D01*
X94100000Y35150000D02*
X94100000Y67250000D01*
X154900000Y67250000D02*
X154900000Y35150000D01*
X154900000Y35150000D02*
X94100000Y35150000D01*
G04 #@! TO.C,J4*
X158850000Y40050000D02*
X190950000Y40050000D01*
X158850000Y40050000D02*
X158850000Y116950000D01*
X190950000Y40050000D02*
X190950000Y116950000D01*
D14*
X183900000Y40146000D02*
X183900000Y116854000D01*
D18*
X158850000Y116950000D02*
X190950000Y116950000D01*
D14*
G04 #@! TO.C,F2*
X145453400Y76285600D02*
X150303400Y76285600D01*
X145453400Y74285600D02*
X150303400Y74285600D01*
X145403400Y76285600D02*
G75*
G03*
X145403400Y74285600I0J-1000000D01*
G01*
X150303400Y74285600D02*
G75*
G03*
X150303400Y76285600I0J1000000D01*
G01*
G04 #@! TO.C,F1*
X129978400Y97401600D02*
X134828400Y97401600D01*
X129978400Y95401600D02*
X134828400Y95401600D01*
X129928400Y97401600D02*
G75*
G03*
X129928400Y95401600I0J-1000000D01*
G01*
X134828400Y95401600D02*
G75*
G03*
X134828400Y97401600I0J1000000D01*
G01*
G04 #@! TD*
M02*
