M48
; DRILL file {KiCad 7.0.10-7.0.10~ubuntu22.04.1} date Thu Jan 11 23:10:12 2024
; FORMAT={2:4/ absolute / inch / suppress leading zeros}
; #@! TF.CreationDate,2024-01-11T23:10:12+00:00
; #@! TF.GenerationSoftware,Kicad,Pcbnew,7.0.10-7.0.10~ubuntu22.04.1
; #@! TF.FileFunction,MixedPlating,1,2
FMAT,2
INCH,TZ
; #@! TA.AperFunction,Plated,PTH,ComponentDrill
T1C0.0118
; #@! TA.AperFunction,Plated,PTH,ComponentDrill
T2C0.0118
; #@! TA.AperFunction,Plated,PTH,ComponentDrill
T3C0.0320
; #@! TA.AperFunction,Plated,PTH,ComponentDrill
T4C0.0394
; #@! TA.AperFunction,Plated,PTH,ComponentDrill
T5C0.0433
; #@! TA.AperFunction,Plated,PTH,ComponentDrill
T6C0.0531
; #@! TA.AperFunction,Plated,PTH,ComponentDrill
T7C0.0689
; #@! TA.AperFunction,NonPlated,NPTH,ComponentDrill
T8C0.0787
; #@! TA.AperFunction,NonPlated,NPTH,ComponentDrill
T9C0.1122
; #@! TA.AperFunction,NonPlated,NPTH,ComponentDrill
T10C0.1378
%
G90
G05
T1
X47391Y33640
X47736Y33433
X47824Y35333
X47854Y33935
T2
X44650Y45086
X44650Y44692
X44650Y43294
X44650Y42901
X59709Y42467
X59709Y42074
X59709Y41680
X59709Y41286
T3
X51153Y37953
X53082Y37953
X57245Y29640
X59175Y29640
T4
X38812Y36991
X39797Y36991
X39970Y47440
X39970Y46440
X39970Y45440
X39970Y44440
X39970Y43440
X39970Y42440
X40781Y36991
X41765Y36991
X42007Y30272
X42749Y36991
X43734Y36991
X44718Y36991
X45702Y36991
T5
X38354Y29993
X40354Y29993
T6
X24291Y52205
X24291Y50433
X25669Y52205
X25669Y50433
X26890Y52205
X26890Y50433
X28071Y52205
X28071Y50433
X29252Y52205
X29252Y50433
X30433Y52205
X30433Y50433
X31614Y52205
X31614Y50433
X32795Y52205
X32795Y50433
X33976Y52205
X33976Y50433
X35157Y52205
X35157Y50433
X36378Y52205
X36378Y50433
X38720Y52205
X38720Y50433
X39902Y52205
X39902Y50433
X41083Y52205
X41083Y50433
X42264Y52205
X42264Y50433
X43445Y52205
X43445Y50433
X44626Y52205
X44626Y50433
X46870Y52205
X46870Y50433
X48051Y52205
X48051Y50433
X49232Y52205
X49232Y50433
X50413Y52205
X50413Y50433
X51594Y52205
X51594Y50433
X52776Y52205
X52776Y50433
X53957Y52205
X53957Y50433
X55138Y52205
X55138Y50433
X57480Y52205
X57480Y50433
X58858Y52205
X58858Y50433
X60079Y52205
X60079Y50433
X61260Y52205
X61260Y50433
X62441Y52205
X62441Y50433
X63622Y52205
X63622Y50433
X64803Y52205
X64803Y50433
X65984Y52205
X65984Y50433
X67165Y52205
X67165Y50433
X68346Y52205
X68346Y50433
X69567Y52205
X69567Y50433
X70945Y52205
X70945Y50433
X72323Y52205
X72323Y50433
T7
X26181Y40118
X26181Y38543
X26181Y36969
X26181Y35394
X26181Y33819
X26181Y32244
X26181Y30669
X26181Y29094
X26181Y27520
X26181Y25945
X26181Y24370
X26181Y22795
X27756Y39331
X27756Y37756
X27756Y36181
X27756Y34606
X27756Y33031
X27756Y31457
X27756Y29882
X27756Y28307
X27756Y26732
X27756Y25157
X27756Y23583
X29331Y40118
X29331Y38543
X29331Y36969
X29331Y35394
X29331Y33819
X29331Y32244
X29331Y30669
X29331Y29094
X29331Y27520
X29331Y25945
X29331Y24370
X29331Y22795
X43504Y21732
X43504Y18583
X44291Y20157
X45079Y21732
X45079Y18583
X45866Y20157
X46654Y21732
X46654Y18583
X47441Y20157
X48228Y21732
X48228Y18583
X49016Y20157
X49803Y21732
X49803Y18583
X50591Y20157
X51378Y21732
X51378Y18583
X52165Y20157
X52953Y21732
X52953Y18583
X53740Y20157
X54528Y21732
X54528Y18583
X67283Y39567
X67283Y37992
X67283Y36417
X67283Y34843
X67283Y33268
X67283Y31693
X67283Y30118
X67283Y28543
X67283Y26969
X67283Y25394
X67283Y23819
X67283Y22244
X68858Y38780
X68858Y37205
X68858Y35630
X68858Y34055
X68858Y32480
X68858Y30906
X68858Y29331
X68858Y27756
X68858Y26181
X68858Y24606
X68858Y23031
X70433Y39567
X70433Y37992
X70433Y36417
X70433Y34843
X70433Y33268
X70433Y31693
X70433Y30118
X70433Y28543
X70433Y26969
X70433Y25394
X70433Y23819
X70433Y22244
T8
X24882Y44528
X24882Y18386
X32008Y43937
X32008Y18976
X39094Y17283
X39685Y24409
X58346Y24409
X58937Y17283
X64606Y43386
X64606Y18425
X71732Y43976
X71732Y17835
T9
X27559Y42677
X27559Y20236
X40945Y19961
X57087Y19961
X69055Y42126
X69055Y19685
T10
X24035Y54449
X37598Y54449
X56260Y54449
X72579Y54449
M30
