G04 #@! TF.GenerationSoftware,KiCad,Pcbnew,7.0.10-7.0.10~ubuntu22.04.1*
G04 #@! TF.CreationDate,2024-01-11T23:20:31+00:00*
G04 #@! TF.ProjectId,test123,74657374-3132-4332-9e6b-696361645f70,a*
G04 #@! TF.SameCoordinates,Original*
G04 #@! TF.FileFunction,Soldermask,Top*
G04 #@! TF.FilePolarity,Negative*
%FSLAX46Y46*%
G04 Gerber Fmt 4.6, Leading zero omitted, Abs format (unit mm)*
G04 Created by KiCad (PCBNEW 7.0.10-7.0.10~ubuntu22.04.1) date 2024-01-11 23:20:31*
%MOMM*%
%LPD*%
G01*
G04 APERTURE LIST*
%ADD10C,1.700000*%
%ADD11R,4.600000X1.100000*%
%ADD12R,9.400000X10.800000*%
%ADD13O,0.499999X0.250000*%
%ADD14O,0.250000X0.499999*%
%ADD15C,0.599999*%
%ADD16C,3.500000*%
%ADD17C,2.000000*%
%ADD18R,1.700000X1.700000*%
%ADD19O,1.700000X1.700000*%
%ADD20C,1.650000*%
%ADD21C,2.850000*%
%ADD22C,2.400000*%
%ADD23O,1.700000X1.850000*%
%ADD24C,1.524000*%
G04 APERTURE END LIST*
D10*
G04 #@! TO.C,P1*
X106698400Y76891600D03*
G04 #@! TD*
G04 #@! TO.C,R1*
G36*
G01*
X120058400Y91825005D02*
X120058400Y92605005D01*
G75*
G02*
X120128400Y92675005I70000J0D01*
G01*
X120688400Y92675005D01*
G75*
G02*
X120758400Y92605005I0J-70000D01*
G01*
X120758400Y91825005D01*
G75*
G02*
X120688400Y91755005I-70000J0D01*
G01*
X120128400Y91755005D01*
G75*
G02*
X120058400Y91825005I0J70000D01*
G01*
G37*
G36*
G01*
X121658400Y91825005D02*
X121658400Y92605005D01*
G75*
G02*
X121728400Y92675005I70000J0D01*
G01*
X122288400Y92675005D01*
G75*
G02*
X122358400Y92605005I0J-70000D01*
G01*
X122358400Y91825005D01*
G75*
G02*
X122288400Y91755005I-70000J0D01*
G01*
X121728400Y91755005D01*
G75*
G02*
X121658400Y91825005I0J70000D01*
G01*
G37*
G04 #@! TD*
G04 #@! TO.C,R2*
G36*
G01*
X120328400Y94211600D02*
X120328400Y97061600D01*
G75*
G02*
X120578400Y97311600I250000J0D01*
G01*
X121303400Y97311600D01*
G75*
G02*
X121553400Y97061600I0J-250000D01*
G01*
X121553400Y94211600D01*
G75*
G02*
X121303400Y93961600I-250000J0D01*
G01*
X120578400Y93961600D01*
G75*
G02*
X120328400Y94211600I0J250000D01*
G01*
G37*
G36*
G01*
X126253400Y94211600D02*
X126253400Y97061600D01*
G75*
G02*
X126503400Y97311600I250000J0D01*
G01*
X127228400Y97311600D01*
G75*
G02*
X127478400Y97061600I0J-250000D01*
G01*
X127478400Y94211600D01*
G75*
G02*
X127228400Y93961600I-250000J0D01*
G01*
X126503400Y93961600D01*
G75*
G02*
X126253400Y94211600I0J250000D01*
G01*
G37*
G04 #@! TD*
D11*
G04 #@! TO.C,Q1*
X98178400Y87496600D03*
D12*
X107328400Y84956600D03*
D11*
X98178400Y82416600D03*
G04 #@! TD*
D13*
G04 #@! TO.C,M2*
X124548393Y83819929D03*
D14*
X114198399Y83869927D03*
X114698400Y83869927D03*
D15*
X121248397Y84919925D03*
X120373395Y85444925D03*
X121548399Y86194923D03*
X121473396Y89744924D03*
G04 #@! TD*
D16*
G04 #@! TO.C,J1*
X61050000Y138300000D03*
X95500000Y138300000D03*
X142900000Y138300000D03*
X184350000Y138300000D03*
D17*
X183700000Y128100000D03*
X183700000Y132600000D03*
X180200000Y128100000D03*
X180200000Y132600000D03*
X176700000Y128100000D03*
X176700000Y132600000D03*
X173600000Y128100000D03*
X173600000Y132600000D03*
X170600000Y128100000D03*
X170600000Y132600000D03*
X167600000Y128100000D03*
X167600000Y132600000D03*
X164600000Y128100000D03*
X164600000Y132600000D03*
X161600000Y128100000D03*
X161600000Y132600000D03*
X158600000Y128100000D03*
X158600000Y132600000D03*
X155600000Y128100000D03*
X155600000Y132600000D03*
X152600000Y128100000D03*
X152600000Y132600000D03*
X149500000Y128100000D03*
X149500000Y132600000D03*
X146000000Y128100000D03*
X146000000Y132600000D03*
X140050000Y128100000D03*
X140050000Y132600000D03*
X137050000Y128100000D03*
X137050000Y132600000D03*
X134050000Y128100000D03*
X134050000Y132600000D03*
X131050000Y128100000D03*
X131050000Y132600000D03*
X128050000Y128100000D03*
X128050000Y132600000D03*
X125050000Y128100000D03*
X125050000Y132600000D03*
X122050000Y128100000D03*
X122050000Y132600000D03*
X119050000Y128100000D03*
X119050000Y132600000D03*
X113350000Y128100000D03*
X113350000Y132600000D03*
X110350000Y128100000D03*
X110350000Y132600000D03*
X107350000Y128100000D03*
X107350000Y132600000D03*
X104350000Y128100000D03*
X104350000Y132600000D03*
X101350000Y128100000D03*
X101350000Y132600000D03*
X98350000Y128100000D03*
X98350000Y132600000D03*
X92400000Y128100000D03*
X92400000Y132600000D03*
X89300000Y128100000D03*
X89300000Y132600000D03*
X86300000Y128100000D03*
X86300000Y132600000D03*
X83300000Y128100000D03*
X83300000Y132600000D03*
X80300000Y128100000D03*
X80300000Y132600000D03*
X77300000Y128100000D03*
X77300000Y132600000D03*
X74300000Y128100000D03*
X74300000Y132600000D03*
X71300000Y128100000D03*
X71300000Y132600000D03*
X68300000Y128100000D03*
X68300000Y132600000D03*
X65200000Y128100000D03*
X65200000Y132600000D03*
X61700000Y128100000D03*
X61700000Y132600000D03*
G04 #@! TD*
D18*
G04 #@! TO.C,J3*
X101523800Y120497600D03*
D19*
X101523800Y117957600D03*
X101523800Y115417600D03*
X101523800Y112877600D03*
X101523800Y110337600D03*
X101523800Y107797600D03*
G04 #@! TD*
D20*
G04 #@! TO.C,F3*
X97418400Y76181600D03*
X102498400Y76181600D03*
G04 #@! TD*
D17*
G04 #@! TO.C,J5*
X63200000Y113100000D03*
X81300000Y111600000D03*
D21*
X70000000Y108400000D03*
X70000000Y51400000D03*
D17*
X81300000Y48200000D03*
X63200000Y46700000D03*
D22*
X74500000Y101900000D03*
X74500000Y97900000D03*
X74500000Y93900000D03*
X74500000Y89900000D03*
X74500000Y85900000D03*
X74500000Y81900000D03*
X74500000Y77900000D03*
X74500000Y73900000D03*
X74500000Y69900000D03*
X74500000Y65900000D03*
X74500000Y61900000D03*
X74500000Y57900000D03*
X70500000Y99900000D03*
X70500000Y95900000D03*
X70500000Y91900000D03*
X70500000Y87900000D03*
X70500000Y83900000D03*
X70500000Y79900000D03*
X70500000Y75900000D03*
X70500000Y71900000D03*
X70500000Y67900000D03*
X70500000Y63900000D03*
X70500000Y59900000D03*
X66500000Y101900000D03*
X66500000Y97900000D03*
X66500000Y93900000D03*
X66500000Y89900000D03*
X66500000Y85900000D03*
X66500000Y81900000D03*
X66500000Y77900000D03*
X66500000Y73900000D03*
X66500000Y69900000D03*
X66500000Y65900000D03*
X66500000Y61900000D03*
X66500000Y57900000D03*
G04 #@! TD*
G04 #@! TO.C,J2*
G36*
G01*
X97733400Y93281500D02*
X97733400Y94631700D01*
G75*
G02*
X97983300Y94881600I249900J0D01*
G01*
X99183500Y94881600D01*
G75*
G02*
X99433400Y94631700I0J-249900D01*
G01*
X99433400Y93281500D01*
G75*
G02*
X99183500Y93031600I-249900J0D01*
G01*
X97983300Y93031600D01*
G75*
G02*
X97733400Y93281500I0J249900D01*
G01*
G37*
D23*
X101083400Y93956600D03*
X103583400Y93956600D03*
X106083400Y93956600D03*
X108583400Y93956600D03*
X111083400Y93956600D03*
X113583400Y93956600D03*
X116083400Y93956600D03*
G04 #@! TD*
D17*
G04 #@! TO.C,J6*
X99300000Y43900000D03*
X100800000Y62000000D03*
D21*
X104000000Y50700000D03*
X145000000Y50700000D03*
D17*
X148200000Y62000000D03*
X149700000Y43900000D03*
D22*
X110500000Y55200000D03*
X114500000Y55200000D03*
X118500000Y55200000D03*
X122500000Y55200000D03*
X126500000Y55200000D03*
X130500000Y55200000D03*
X134500000Y55200000D03*
X138500000Y55200000D03*
X112500000Y51200000D03*
X116500000Y51200000D03*
X120500000Y51200000D03*
X124500000Y51200000D03*
X128500000Y51200000D03*
X132500000Y51200000D03*
X136500000Y51200000D03*
X110500000Y47200000D03*
X114500000Y47200000D03*
X118500000Y47200000D03*
X122500000Y47200000D03*
X126500000Y47200000D03*
X130500000Y47200000D03*
X134500000Y47200000D03*
X138500000Y47200000D03*
G04 #@! TD*
D17*
G04 #@! TO.C,J4*
X182200000Y45300000D03*
X164100000Y46800000D03*
D21*
X175400000Y50000000D03*
X175400000Y107000000D03*
D17*
X164100000Y110200000D03*
X182200000Y111700000D03*
D22*
X170900000Y56500000D03*
X170900000Y60500000D03*
X170900000Y64500000D03*
X170900000Y68500000D03*
X170900000Y72500000D03*
X170900000Y76500000D03*
X170900000Y80500000D03*
X170900000Y84500000D03*
X170900000Y88500000D03*
X170900000Y92500000D03*
X170900000Y96500000D03*
X170900000Y100500000D03*
X174900000Y58500000D03*
X174900000Y62500000D03*
X174900000Y66500000D03*
X174900000Y70500000D03*
X174900000Y74500000D03*
X174900000Y78500000D03*
X174900000Y82500000D03*
X174900000Y86500000D03*
X174900000Y90500000D03*
X174900000Y94500000D03*
X174900000Y98500000D03*
X178900000Y56500000D03*
X178900000Y60500000D03*
X178900000Y64500000D03*
X178900000Y68500000D03*
X178900000Y72500000D03*
X178900000Y76500000D03*
X178900000Y80500000D03*
X178900000Y84500000D03*
X178900000Y88500000D03*
X178900000Y92500000D03*
X178900000Y96500000D03*
X178900000Y100500000D03*
G04 #@! TD*
D24*
G04 #@! TO.C,F2*
X145403400Y75285600D03*
G36*
G01*
X146748390Y74385600D02*
X146058390Y74385600D01*
G75*
G02*
X145828390Y74615600I0J230000D01*
G01*
X145828390Y75955600D01*
G75*
G02*
X146058390Y76185600I230000J0D01*
G01*
X146748390Y76185600D01*
G75*
G02*
X146978390Y75955600I0J-230000D01*
G01*
X146978390Y74615600D01*
G75*
G02*
X146748390Y74385600I-230000J0D01*
G01*
G37*
G36*
G01*
X149648410Y74385600D02*
X148958410Y74385600D01*
G75*
G02*
X148728410Y74615600I0J230000D01*
G01*
X148728410Y75955600D01*
G75*
G02*
X148958410Y76185600I230000J0D01*
G01*
X149648410Y76185600D01*
G75*
G02*
X149878410Y75955600I0J-230000D01*
G01*
X149878410Y74615600D01*
G75*
G02*
X149648410Y74385600I-230000J0D01*
G01*
G37*
X150303400Y75285600D03*
G04 #@! TD*
G04 #@! TO.C,F1*
X129928400Y96401600D03*
G36*
G01*
X131273390Y95501600D02*
X130583390Y95501600D01*
G75*
G02*
X130353390Y95731600I0J230000D01*
G01*
X130353390Y97071600D01*
G75*
G02*
X130583390Y97301600I230000J0D01*
G01*
X131273390Y97301600D01*
G75*
G02*
X131503390Y97071600I0J-230000D01*
G01*
X131503390Y95731600D01*
G75*
G02*
X131273390Y95501600I-230000J0D01*
G01*
G37*
G36*
G01*
X134173410Y95501600D02*
X133483410Y95501600D01*
G75*
G02*
X133253410Y95731600I0J230000D01*
G01*
X133253410Y97071600D01*
G75*
G02*
X133483410Y97301600I230000J0D01*
G01*
X134173410Y97301600D01*
G75*
G02*
X134403410Y97071600I0J-230000D01*
G01*
X134403410Y95731600D01*
G75*
G02*
X134173410Y95501600I-230000J0D01*
G01*
G37*
X134828400Y96401600D03*
G04 #@! TD*
G36*
X203986002Y130615169D02*
G01*
X204054112Y130595132D01*
X204075778Y130577513D01*
X205425089Y129205332D01*
X205458589Y129142736D01*
X205461248Y129116988D01*
X205461248Y66240777D01*
X205441246Y66172656D01*
X205387590Y66126163D01*
X205335609Y66114778D01*
X203161063Y66108548D01*
X203161020Y66108546D01*
X202914698Y66088058D01*
X202675070Y66027383D01*
X202675062Y66027380D01*
X202448705Y65928096D01*
X202448686Y65928086D01*
X202241758Y65792899D01*
X202241744Y65792888D01*
X202059890Y65625485D01*
X202059879Y65625473D01*
X201908055Y65430415D01*
X201908050Y65430407D01*
X201790403Y65213019D01*
X201790402Y65213016D01*
X201710136Y64979217D01*
X201710135Y64979215D01*
X201669449Y64735392D01*
X201669449Y64488209D01*
X201710135Y64244386D01*
X201710136Y64244384D01*
X201790402Y64010585D01*
X201790403Y64010582D01*
X201908050Y63793194D01*
X201908055Y63793186D01*
X202059879Y63598128D01*
X202059890Y63598116D01*
X202241744Y63430713D01*
X202241758Y63430702D01*
X202448686Y63295515D01*
X202448705Y63295505D01*
X202675062Y63196221D01*
X202675069Y63196218D01*
X202914697Y63135543D01*
X202914707Y63135542D01*
X203161036Y63115138D01*
X203161058Y63115137D01*
X205335248Y63115137D01*
X205403369Y63095135D01*
X205449862Y63041479D01*
X205461248Y62989137D01*
X205461248Y39608968D01*
X205441246Y39540847D01*
X205425866Y39521422D01*
X204929226Y39007358D01*
X204927704Y39005809D01*
X204083939Y38162042D01*
X204021626Y38128017D01*
X203994843Y38125137D01*
X201601249Y38125137D01*
X201012611Y38105786D01*
X200426513Y38048062D01*
X199995547Y37976913D01*
X199987817Y37975881D01*
X199935449Y37970536D01*
X199935443Y37970535D01*
X199917748Y37965164D01*
X199901682Y37961416D01*
X199845440Y37952130D01*
X199271881Y37818397D01*
X198708288Y37647435D01*
X198157107Y37439989D01*
X197771563Y37265303D01*
X197763206Y37261872D01*
X196862048Y36929136D01*
X196862045Y36929135D01*
X195414250Y35811538D01*
X194347446Y34617734D01*
X193953443Y33861248D01*
X193948691Y33852915D01*
X193807031Y33625110D01*
X193529408Y33105718D01*
X193529407Y33105717D01*
X193326600Y32658118D01*
X193323582Y32651916D01*
X193077449Y32179339D01*
X193077447Y32179335D01*
X193007810Y31786840D01*
X193004322Y31772276D01*
X192907924Y31454500D01*
X192774188Y30880953D01*
X192678250Y30299875D01*
X192678248Y30299862D01*
X192620521Y29713776D01*
X192620520Y29713761D01*
X192601248Y29125123D01*
X192601248Y26731541D01*
X192581246Y26663420D01*
X192564343Y26642446D01*
X191223939Y25302042D01*
X191161627Y25268016D01*
X191134844Y25265137D01*
X55787651Y25265137D01*
X55719530Y25285139D01*
X55698556Y25302042D01*
X54358153Y26642445D01*
X54324127Y26704757D01*
X54321248Y26731540D01*
X54321248Y28641060D01*
X111223810Y28641060D01*
X111264655Y28396280D01*
X111264657Y28396273D01*
X111345232Y28161563D01*
X111345233Y28161561D01*
X111463345Y27943309D01*
X111463346Y27943308D01*
X111615776Y27747467D01*
X111798349Y27579397D01*
X112006103Y27443665D01*
X112006102Y27443665D01*
X112233360Y27343981D01*
X112233367Y27343978D01*
X112473925Y27283061D01*
X112721248Y27262566D01*
X112968570Y27283061D01*
X113209128Y27343978D01*
X113209135Y27343981D01*
X113436392Y27443665D01*
X113644146Y27579397D01*
X113826719Y27747467D01*
X113979149Y27943308D01*
X113979150Y27943309D01*
X114097262Y28161561D01*
X114097263Y28161563D01*
X114177838Y28396273D01*
X114177840Y28396280D01*
X114218686Y28641060D01*
X127423811Y28641060D01*
X127464656Y28396280D01*
X127464658Y28396273D01*
X127545233Y28161564D01*
X127545235Y28161562D01*
X127663346Y27943309D01*
X127663347Y27943308D01*
X127815767Y27747479D01*
X127815777Y27747468D01*
X127998350Y27579398D01*
X128206104Y27443666D01*
X128206103Y27443666D01*
X128433360Y27343982D01*
X128433367Y27343979D01*
X128673925Y27283062D01*
X128921248Y27262567D01*
X129168570Y27283062D01*
X129409128Y27343979D01*
X129409135Y27343982D01*
X129636391Y27443666D01*
X129844145Y27579398D01*
X130026718Y27747468D01*
X130026728Y27747479D01*
X130179148Y27943308D01*
X130179149Y27943309D01*
X130297260Y28161562D01*
X130297262Y28161564D01*
X130377837Y28396273D01*
X130377839Y28396280D01*
X130418685Y28641060D01*
X130421247Y28765136D01*
X130418685Y28889213D01*
X130377839Y29133993D01*
X130377837Y29134000D01*
X130297262Y29368709D01*
X130297260Y29368711D01*
X130179149Y29586964D01*
X130179148Y29586965D01*
X130026728Y29782794D01*
X130026718Y29782805D01*
X129844145Y29950875D01*
X129636391Y30086607D01*
X129636392Y30086607D01*
X129409135Y30186291D01*
X129409128Y30186294D01*
X129168570Y30247211D01*
X128921248Y30267705D01*
X128673925Y30247211D01*
X128433367Y30186294D01*
X128433360Y30186291D01*
X128206104Y30086607D01*
X127998350Y29950875D01*
X127815777Y29782805D01*
X127815767Y29782794D01*
X127663347Y29586965D01*
X127663346Y29586964D01*
X127545235Y29368711D01*
X127545233Y29368709D01*
X127464658Y29134000D01*
X127464656Y29133993D01*
X127423811Y28889213D01*
X127423811Y28641060D01*
X114218686Y28641060D01*
X114221248Y28765136D01*
X114218686Y28889213D01*
X114177840Y29133993D01*
X114177838Y29134000D01*
X114097263Y29368710D01*
X114097262Y29368712D01*
X113979150Y29586964D01*
X113979149Y29586965D01*
X113826719Y29782806D01*
X113644146Y29950876D01*
X113436392Y30086608D01*
X113436393Y30086608D01*
X113209135Y30186292D01*
X113209128Y30186295D01*
X112968570Y30247212D01*
X112721248Y30267706D01*
X112473925Y30247212D01*
X112233367Y30186295D01*
X112233360Y30186292D01*
X112006103Y30086608D01*
X111798349Y29950876D01*
X111615776Y29782806D01*
X111463346Y29586965D01*
X111463345Y29586964D01*
X111345233Y29368712D01*
X111345232Y29368710D01*
X111264657Y29134000D01*
X111264655Y29133993D01*
X111223810Y28889213D01*
X111223810Y28641060D01*
X54321248Y28641060D01*
X54321248Y29125149D01*
X54301964Y29713756D01*
X54244236Y30299868D01*
X54198981Y30573965D01*
X54197848Y30582730D01*
X54164848Y30934732D01*
X54164846Y30934739D01*
X54069879Y31219639D01*
X54066704Y31230873D01*
X54014557Y31454518D01*
X53843603Y32018072D01*
X53636142Y32569280D01*
X53393084Y33105720D01*
X53393075Y33105737D01*
X53115453Y33625130D01*
X52804460Y34125248D01*
X52461409Y34603974D01*
X52461408Y34603975D01*
X52221846Y34895881D01*
X54463810Y34895881D01*
X54504655Y34651101D01*
X54504657Y34651094D01*
X54585232Y34416384D01*
X54585233Y34416382D01*
X54703345Y34198130D01*
X54703346Y34198129D01*
X54855776Y34002288D01*
X55038349Y33834218D01*
X55246103Y33698486D01*
X55246102Y33698486D01*
X55473360Y33598802D01*
X55473367Y33598799D01*
X55713925Y33537882D01*
X55961248Y33517387D01*
X56208570Y33537882D01*
X56449128Y33598799D01*
X56449135Y33598802D01*
X56676392Y33698486D01*
X56884146Y33834218D01*
X57066719Y34002288D01*
X57219149Y34198129D01*
X57219150Y34198130D01*
X57337262Y34416382D01*
X57337263Y34416384D01*
X57417838Y34651094D01*
X57417840Y34651101D01*
X57458686Y34895881D01*
X57461248Y35019957D01*
X57458686Y35144034D01*
X57417840Y35388814D01*
X57417838Y35388821D01*
X57337263Y35623531D01*
X57337262Y35623533D01*
X57219150Y35841785D01*
X57219149Y35841786D01*
X57066719Y36037627D01*
X56884146Y36205697D01*
X56676392Y36341429D01*
X56676393Y36341429D01*
X56449135Y36441113D01*
X56449128Y36441116D01*
X56208570Y36502033D01*
X55961248Y36522527D01*
X55713925Y36502033D01*
X55473367Y36441116D01*
X55473360Y36441113D01*
X55246103Y36341429D01*
X55038349Y36205697D01*
X54855776Y36037627D01*
X54703346Y35841786D01*
X54703345Y35841785D01*
X54585233Y35623533D01*
X54585232Y35623531D01*
X54504657Y35388821D01*
X54504655Y35388814D01*
X54463810Y35144034D01*
X54463810Y34895881D01*
X52221846Y34895881D01*
X52087785Y35059235D01*
X51963479Y35191955D01*
X51955983Y35200732D01*
X51777247Y35430536D01*
X50507245Y36573538D01*
X48780048Y37564136D01*
X48780041Y37564138D01*
X46722650Y38046736D01*
X46722647Y38046737D01*
X46393230Y38058502D01*
X46385378Y38059029D01*
X45909891Y38105862D01*
X45909873Y38105863D01*
X45321233Y38125136D01*
X42927651Y38125136D01*
X42859530Y38145138D01*
X42838556Y38162041D01*
X41501771Y39498827D01*
X41467745Y39561139D01*
X41464866Y39587958D01*
X41471497Y63000863D01*
X41491518Y63068978D01*
X41545187Y63115455D01*
X41597794Y63126827D01*
X43761250Y63121727D01*
X44007594Y63142086D01*
X44247232Y63202777D01*
X44473587Y63302072D01*
X44473591Y63302074D01*
X44680537Y63437285D01*
X44862399Y63604705D01*
X45014227Y63799780D01*
X45131873Y64017175D01*
X45131875Y64017178D01*
X45212136Y64250977D01*
X45212138Y64250983D01*
X45252824Y64494808D01*
X45252824Y64741993D01*
X45212138Y64985818D01*
X45212136Y64985824D01*
X45131875Y65219623D01*
X45131873Y65219626D01*
X45014227Y65437021D01*
X44862399Y65632096D01*
X44680537Y65799516D01*
X44473591Y65934727D01*
X44473587Y65934729D01*
X44247232Y66034024D01*
X44007594Y66094716D01*
X44007588Y66094717D01*
X43761267Y66115136D01*
X41598416Y66115136D01*
X41530295Y66135138D01*
X41483802Y66188794D01*
X41472416Y66241172D01*
X41489620Y126991061D01*
X43563810Y126991061D01*
X43604655Y126746281D01*
X43604657Y126746274D01*
X43685232Y126511564D01*
X43685233Y126511562D01*
X43803345Y126293310D01*
X43803346Y126293309D01*
X43955776Y126097468D01*
X44138349Y125929398D01*
X44346103Y125793666D01*
X44346102Y125793666D01*
X44573360Y125693982D01*
X44573367Y125693979D01*
X44813925Y125633062D01*
X45061248Y125612567D01*
X45308570Y125633062D01*
X45549128Y125693979D01*
X45549135Y125693982D01*
X45776392Y125793666D01*
X45984146Y125929398D01*
X46166719Y126097468D01*
X46319149Y126293309D01*
X46319150Y126293310D01*
X46437262Y126511562D01*
X46437263Y126511564D01*
X46517838Y126746274D01*
X46517840Y126746281D01*
X46558686Y126991061D01*
X46561248Y127115137D01*
X46558686Y127239214D01*
X46517840Y127483994D01*
X46517838Y127484001D01*
X46437263Y127718711D01*
X46437262Y127718713D01*
X46319150Y127936965D01*
X46319149Y127936966D01*
X46166719Y128132807D01*
X45984146Y128300877D01*
X45776392Y128436609D01*
X45776393Y128436609D01*
X45549135Y128536293D01*
X45549128Y128536296D01*
X45308570Y128597213D01*
X45061248Y128617707D01*
X44813925Y128597213D01*
X44573367Y128536296D01*
X44573360Y128536293D01*
X44346103Y128436609D01*
X44138349Y128300877D01*
X43955776Y128132807D01*
X43803346Y127936966D01*
X43803345Y127936965D01*
X43685233Y127718713D01*
X43685232Y127718711D01*
X43604657Y127484001D01*
X43604655Y127483994D01*
X43563810Y127239214D01*
X43563810Y126991061D01*
X41489620Y126991061D01*
X41490233Y129155819D01*
X41510254Y129223934D01*
X41526353Y129244087D01*
X42754778Y130494449D01*
X42755564Y130495242D01*
X42838558Y130578234D01*
X42900870Y130612258D01*
X42927652Y130615137D01*
X47282448Y130615137D01*
X47350569Y130595135D01*
X47397062Y130541479D01*
X47408448Y130489137D01*
X47408448Y42771136D01*
X47408447Y42771136D01*
X49270460Y42720812D01*
X49304834Y42715061D01*
X51946299Y41884886D01*
X51963299Y41878153D01*
X53417624Y41176065D01*
X53437739Y41163921D01*
X55174267Y39880400D01*
X55186740Y39869866D01*
X56516766Y38590030D01*
X56534858Y38568191D01*
X57815714Y36609235D01*
X57827062Y36587529D01*
X58732323Y34349522D01*
X58739167Y34326495D01*
X59217518Y31884385D01*
X59219793Y31864507D01*
X59244847Y31137937D01*
X187921247Y31290336D01*
X187996767Y32523828D01*
X188000065Y32545757D01*
X188568643Y34895881D01*
X189463810Y34895881D01*
X189504655Y34651101D01*
X189504657Y34651094D01*
X189585232Y34416384D01*
X189585233Y34416382D01*
X189703345Y34198130D01*
X189703346Y34198129D01*
X189855776Y34002288D01*
X190038349Y33834218D01*
X190246103Y33698486D01*
X190246102Y33698486D01*
X190473360Y33598802D01*
X190473367Y33598799D01*
X190713925Y33537882D01*
X190961248Y33517387D01*
X191208570Y33537882D01*
X191449128Y33598799D01*
X191449135Y33598802D01*
X191676392Y33698486D01*
X191884146Y33834218D01*
X192066719Y34002288D01*
X192219149Y34198129D01*
X192219150Y34198130D01*
X192337262Y34416382D01*
X192337263Y34416384D01*
X192417838Y34651094D01*
X192417840Y34651101D01*
X192458686Y34895881D01*
X192461248Y35019957D01*
X192458686Y35144034D01*
X192417840Y35388814D01*
X192417838Y35388821D01*
X192337263Y35623531D01*
X192337262Y35623533D01*
X192219150Y35841785D01*
X192219149Y35841786D01*
X192066719Y36037627D01*
X191884146Y36205697D01*
X191676392Y36341429D01*
X191676393Y36341429D01*
X191449135Y36441113D01*
X191449128Y36441116D01*
X191208570Y36502033D01*
X190961248Y36522527D01*
X190713925Y36502033D01*
X190473367Y36441116D01*
X190473360Y36441113D01*
X190246103Y36341429D01*
X190038349Y36205697D01*
X189855776Y36037627D01*
X189703346Y35841786D01*
X189703345Y35841785D01*
X189585233Y35623533D01*
X189585232Y35623531D01*
X189504657Y35388821D01*
X189504655Y35388814D01*
X189463810Y35144034D01*
X189463810Y34895881D01*
X188568643Y34895881D01*
X188755225Y35667085D01*
X188768375Y35700113D01*
X189947628Y37757533D01*
X189960527Y37775990D01*
X191292050Y39358744D01*
X191308309Y39374844D01*
X192740633Y40555882D01*
X192754538Y40565843D01*
X194136262Y41420000D01*
X194152882Y41428637D01*
X196441696Y42409557D01*
X196470616Y42418031D01*
X197979653Y42669538D01*
X198583369Y42820467D01*
X198595238Y42822835D01*
X199087955Y42896742D01*
X199106646Y42898136D01*
X199503648Y42898136D01*
X199503648Y42898137D01*
X199576708Y126991061D01*
X200363810Y126991061D01*
X200404655Y126746281D01*
X200404657Y126746274D01*
X200485232Y126511564D01*
X200485233Y126511562D01*
X200603345Y126293310D01*
X200603346Y126293309D01*
X200755776Y126097468D01*
X200938349Y125929398D01*
X201146103Y125793666D01*
X201146102Y125793666D01*
X201373360Y125693982D01*
X201373367Y125693979D01*
X201613925Y125633062D01*
X201861248Y125612567D01*
X202108570Y125633062D01*
X202349128Y125693979D01*
X202349135Y125693982D01*
X202576392Y125793666D01*
X202784146Y125929398D01*
X202966719Y126097468D01*
X203119149Y126293309D01*
X203119150Y126293310D01*
X203237262Y126511562D01*
X203237263Y126511564D01*
X203317838Y126746274D01*
X203317840Y126746281D01*
X203358686Y126991061D01*
X203361248Y127115137D01*
X203358686Y127239214D01*
X203317840Y127483994D01*
X203317838Y127484001D01*
X203237263Y127718711D01*
X203237262Y127718713D01*
X203119150Y127936965D01*
X203119149Y127936966D01*
X202966719Y128132807D01*
X202784146Y128300877D01*
X202576392Y128436609D01*
X202576393Y128436609D01*
X202349135Y128536293D01*
X202349128Y128536296D01*
X202108570Y128597213D01*
X201861248Y128617707D01*
X201613925Y128597213D01*
X201373367Y128536296D01*
X201373360Y128536293D01*
X201146103Y128436609D01*
X200938349Y128300877D01*
X200755776Y128132807D01*
X200603346Y127936966D01*
X200603345Y127936965D01*
X200485233Y127718713D01*
X200485232Y127718711D01*
X200404657Y127484001D01*
X200404655Y127483994D01*
X200363810Y127239214D01*
X200363810Y126991061D01*
X199576708Y126991061D01*
X199579739Y130479884D01*
X199599800Y130547988D01*
X199653496Y130594434D01*
X199704291Y130605767D01*
X200669907Y130616866D01*
X200671420Y130616874D01*
X203986002Y130615169D01*
G37*
M02*
