G04 #@! TF.GenerationSoftware,KiCad,Pcbnew,7.0.10-7.0.10~ubuntu22.04.1*
G04 #@! TF.CreationDate,2024-01-11T23:10:12+00:00*
G04 #@! TF.ProjectId,test123,74657374-3132-4332-9e6b-696361645f70,a*
G04 #@! TF.SameCoordinates,Original*
G04 #@! TF.FileFunction,Copper,L2,Inr*
G04 #@! TF.FilePolarity,Positive*
%FSLAX46Y46*%
G04 Gerber Fmt 4.6, Leading zero omitted, Abs format (unit mm)*
G04 Created by KiCad (PCBNEW 7.0.10-7.0.10~ubuntu22.04.1) date 2024-01-11 23:10:12*
%MOMM*%
%LPD*%
G01*
G04 APERTURE LIST*
G04 #@! TA.AperFunction,ComponentPad*
%ADD10C,1.700000*%
G04 #@! TD*
G04 #@! TA.AperFunction,ComponentPad*
%ADD11C,0.700000*%
G04 #@! TD*
G04 #@! TA.AperFunction,ComponentPad*
%ADD12C,0.599999*%
G04 #@! TD*
G04 #@! TA.AperFunction,ComponentPad*
%ADD13C,2.000000*%
G04 #@! TD*
G04 #@! TA.AperFunction,ComponentPad*
%ADD14R,1.700000X1.700000*%
G04 #@! TD*
G04 #@! TA.AperFunction,ComponentPad*
%ADD15O,1.700000X1.700000*%
G04 #@! TD*
G04 #@! TA.AperFunction,ComponentPad*
%ADD16C,1.650000*%
G04 #@! TD*
G04 #@! TA.AperFunction,ComponentPad*
%ADD17C,2.400000*%
G04 #@! TD*
G04 #@! TA.AperFunction,ComponentPad*
%ADD18O,1.700000X1.850000*%
G04 #@! TD*
G04 #@! TA.AperFunction,ComponentPad*
%ADD19C,1.524000*%
G04 #@! TD*
G04 APERTURE END LIST*
D10*
G04 #@! TO.N,N/C*
G04 #@! TO.C,P1*
X106698400Y76891600D03*
G04 #@! TD*
D11*
G04 #@! TO.N,/WBO_Vs*
G04 #@! TO.C,M1*
X151660200Y104867400D03*
G04 #@! TO.N,/WBO_Vs{slash}Ip*
X151660200Y105867400D03*
G04 #@! TO.N,/WBO_Ip*
X151660200Y106867400D03*
G04 #@! TO.N,/WBO_R_Trim*
X151660200Y107867400D03*
G04 #@! TO.N,/5V_SENSOR_2*
X113410200Y114517400D03*
G04 #@! TO.N,Net-(M1-PadW2)*
X113410200Y113517400D03*
G04 #@! TO.N,Net-(M1-PadW3)*
X113410200Y109967400D03*
G04 #@! TO.N,Net-(M1-PadW4)*
X113410200Y108967400D03*
G04 #@! TD*
D12*
G04 #@! TO.N,/5V_SENSOR_2*
G04 #@! TO.C,M2*
X121248397Y84919925D03*
G04 #@! TO.N,Net-(M1-PadW2)*
X120373395Y85444925D03*
G04 #@! TO.N,Net-(M1-PadW4)*
X121548399Y86194923D03*
G04 #@! TO.N,Net-(M1-PadW3)*
X121473396Y89744924D03*
G04 #@! TD*
D13*
G04 #@! TO.N,unconnected-(J1-PadA1)*
G04 #@! TO.C,J1*
X183700000Y128100000D03*
G04 #@! TO.N,unconnected-(J1-PadA2)*
X183700000Y132600000D03*
G04 #@! TO.N,unconnected-(J1-PadA3)*
X180200000Y128100000D03*
G04 #@! TO.N,unconnected-(J1-PadA4)*
X180200000Y132600000D03*
G04 #@! TO.N,unconnected-(J1-PadA5)*
X176700000Y128100000D03*
G04 #@! TO.N,unconnected-(J1-PadA6)*
X176700000Y132600000D03*
G04 #@! TO.N,unconnected-(J1-PadA7)*
X173600000Y128100000D03*
G04 #@! TO.N,unconnected-(J1-PadA8)*
X173600000Y132600000D03*
G04 #@! TO.N,unconnected-(J1-PadA9)*
X170600000Y128100000D03*
G04 #@! TO.N,unconnected-(J1-PadA10)*
X170600000Y132600000D03*
G04 #@! TO.N,unconnected-(J1-PadA11)*
X167600000Y128100000D03*
G04 #@! TO.N,unconnected-(J1-PadA12)*
X167600000Y132600000D03*
G04 #@! TO.N,unconnected-(J1-PadA13)*
X164600000Y128100000D03*
G04 #@! TO.N,unconnected-(J1-PadA14)*
X164600000Y132600000D03*
G04 #@! TO.N,unconnected-(J1-PadA15)*
X161600000Y128100000D03*
G04 #@! TO.N,unconnected-(J1-PadA16)*
X161600000Y132600000D03*
G04 #@! TO.N,unconnected-(J1-PadA17)*
X158600000Y128100000D03*
G04 #@! TO.N,unconnected-(J1-PadA18)*
X158600000Y132600000D03*
G04 #@! TO.N,unconnected-(J1-PadA19)*
X155600000Y128100000D03*
G04 #@! TO.N,unconnected-(J1-PadA20)*
X155600000Y132600000D03*
G04 #@! TO.N,unconnected-(J1-PadA21)*
X152600000Y128100000D03*
G04 #@! TO.N,unconnected-(J1-PadA22)*
X152600000Y132600000D03*
G04 #@! TO.N,unconnected-(J1-PadA23)*
X149500000Y128100000D03*
G04 #@! TO.N,unconnected-(J1-PadA24)*
X149500000Y132600000D03*
G04 #@! TO.N,unconnected-(J1-PadA25)*
X146000000Y128100000D03*
G04 #@! TO.N,unconnected-(J1-PadA26)*
X146000000Y132600000D03*
G04 #@! TO.N,unconnected-(J1-PadB1)*
X140050000Y128100000D03*
G04 #@! TO.N,unconnected-(J1-PadB2)*
X140050000Y132600000D03*
G04 #@! TO.N,unconnected-(J1-PadB3)*
X137050000Y128100000D03*
G04 #@! TO.N,unconnected-(J1-PadB4)*
X137050000Y132600000D03*
G04 #@! TO.N,unconnected-(J1-PadB5)*
X134050000Y128100000D03*
G04 #@! TO.N,unconnected-(J1-PadB6)*
X134050000Y132600000D03*
G04 #@! TO.N,unconnected-(J1-PadB7)*
X131050000Y128100000D03*
G04 #@! TO.N,unconnected-(J1-PadB8)*
X131050000Y132600000D03*
G04 #@! TO.N,unconnected-(J1-PadB9)*
X128050000Y128100000D03*
G04 #@! TO.N,unconnected-(J1-PadB10)*
X128050000Y132600000D03*
G04 #@! TO.N,unconnected-(J1-PadB11)*
X125050000Y128100000D03*
G04 #@! TO.N,unconnected-(J1-PadB12)*
X125050000Y132600000D03*
G04 #@! TO.N,unconnected-(J1-PadB13)*
X122050000Y128100000D03*
G04 #@! TO.N,unconnected-(J1-PadB14)*
X122050000Y132600000D03*
G04 #@! TO.N,unconnected-(J1-PadB15)*
X119050000Y128100000D03*
G04 #@! TO.N,unconnected-(J1-PadB16)*
X119050000Y132600000D03*
G04 #@! TO.N,unconnected-(J1-PadC1)*
X113350000Y128100000D03*
G04 #@! TO.N,unconnected-(J1-PadC2)*
X113350000Y132600000D03*
G04 #@! TO.N,unconnected-(J1-PadC3)*
X110350000Y128100000D03*
G04 #@! TO.N,unconnected-(J1-PadC4)*
X110350000Y132600000D03*
G04 #@! TO.N,unconnected-(J1-PadC5)*
X107350000Y128100000D03*
G04 #@! TO.N,unconnected-(J1-PadC6)*
X107350000Y132600000D03*
G04 #@! TO.N,unconnected-(J1-PadC7)*
X104350000Y128100000D03*
G04 #@! TO.N,unconnected-(J1-PadC8)*
X104350000Y132600000D03*
G04 #@! TO.N,unconnected-(J1-PadC9)*
X101350000Y128100000D03*
G04 #@! TO.N,unconnected-(J1-PadC10)*
X101350000Y132600000D03*
G04 #@! TO.N,unconnected-(J1-PadC11)*
X98350000Y128100000D03*
G04 #@! TO.N,unconnected-(J1-PadC12)*
X98350000Y132600000D03*
G04 #@! TO.N,unconnected-(J1-PadD1)*
X92400000Y128100000D03*
G04 #@! TO.N,unconnected-(J1-PadD2)*
X92400000Y132600000D03*
G04 #@! TO.N,unconnected-(J1-PadD3)*
X89300000Y128100000D03*
G04 #@! TO.N,unconnected-(J1-PadD4)*
X89300000Y132600000D03*
G04 #@! TO.N,unconnected-(J1-PadD5)*
X86300000Y128100000D03*
G04 #@! TO.N,unconnected-(J1-PadD6)*
X86300000Y132600000D03*
G04 #@! TO.N,unconnected-(J1-PadD7)*
X83300000Y128100000D03*
G04 #@! TO.N,unconnected-(J1-PadD8)*
X83300000Y132600000D03*
G04 #@! TO.N,unconnected-(J1-PadD9)*
X80300000Y128100000D03*
G04 #@! TO.N,unconnected-(J1-PadD10)*
X80300000Y132600000D03*
G04 #@! TO.N,unconnected-(J1-PadD11)*
X77300000Y128100000D03*
G04 #@! TO.N,unconnected-(J1-PadD12)*
X77300000Y132600000D03*
G04 #@! TO.N,unconnected-(J1-PadD13)*
X74300000Y128100000D03*
G04 #@! TO.N,unconnected-(J1-PadD14)*
X74300000Y132600000D03*
G04 #@! TO.N,unconnected-(J1-PadD15)*
X71300000Y128100000D03*
G04 #@! TO.N,unconnected-(J1-PadD16)*
X71300000Y132600000D03*
G04 #@! TO.N,unconnected-(J1-PadD17)*
X68300000Y128100000D03*
G04 #@! TO.N,unconnected-(J1-PadD18)*
X68300000Y132600000D03*
G04 #@! TO.N,unconnected-(J1-PadD19)*
X65200000Y128100000D03*
G04 #@! TO.N,unconnected-(J1-PadD20)*
X65200000Y132600000D03*
G04 #@! TO.N,unconnected-(J1-PadD21)*
X61700000Y128100000D03*
G04 #@! TO.N,unconnected-(J1-PadD22)*
X61700000Y132600000D03*
G04 #@! TD*
D14*
G04 #@! TO.N,Net-(J3-Pad1)*
G04 #@! TO.C,J3*
X101523800Y120497600D03*
D15*
G04 #@! TO.N,Net-(J3-Pad2)*
X101523800Y117957600D03*
G04 #@! TO.N,GND*
X101523800Y115417600D03*
G04 #@! TO.N,Net-(J3-Pad4)*
X101523800Y112877600D03*
G04 #@! TO.N,Net-(J3-Pad5)*
X101523800Y110337600D03*
G04 #@! TO.N,N/C*
X101523800Y107797600D03*
G04 #@! TD*
D16*
G04 #@! TO.N,N/C*
G04 #@! TO.C,F3*
X97418400Y76181600D03*
G04 #@! TO.N,/OUT_IGN1*
X102498400Y76181600D03*
G04 #@! TD*
D17*
G04 #@! TO.N,GND*
G04 #@! TO.C,J5*
X74500000Y101900000D03*
X74500000Y97900000D03*
X74500000Y93900000D03*
X74500000Y89900000D03*
X74500000Y85900000D03*
X74500000Y81900000D03*
X74500000Y77900000D03*
X74500000Y73900000D03*
G04 #@! TO.N,/5V_SENSOR_1*
X74500000Y69900000D03*
G04 #@! TO.N,/5V_SENSOR_2*
X74500000Y65900000D03*
G04 #@! TO.N,/12V_PROT*
X74500000Y61900000D03*
X74500000Y57900000D03*
G04 #@! TO.N,N/C*
X70500000Y99900000D03*
X70500000Y95900000D03*
X70500000Y91900000D03*
X70500000Y87900000D03*
X70500000Y83900000D03*
X70500000Y79900000D03*
X70500000Y75900000D03*
X70500000Y71900000D03*
G04 #@! TO.N,/5V_SENSOR_1*
X70500000Y67900000D03*
G04 #@! TO.N,/5V_SENSOR_2*
X70500000Y63900000D03*
G04 #@! TO.N,GND*
X70500000Y59900000D03*
G04 #@! TO.N,N/C*
X66500000Y101900000D03*
X66500000Y97900000D03*
X66500000Y93900000D03*
X66500000Y89900000D03*
X66500000Y85900000D03*
G04 #@! TO.N,GND*
X66500000Y81900000D03*
G04 #@! TO.N,N/C*
X66500000Y77900000D03*
X66500000Y73900000D03*
G04 #@! TO.N,/5V_SENSOR_1*
X66500000Y69900000D03*
G04 #@! TO.N,/5V_SENSOR_2*
X66500000Y65900000D03*
G04 #@! TO.N,N/C*
X66500000Y61900000D03*
X66500000Y57900000D03*
G04 #@! TD*
G04 #@! TO.N,GND*
G04 #@! TO.C,J2*
G04 #@! TA.AperFunction,ComponentPad*
G36*
G01*
X97733400Y93281500D02*
X97733400Y94631700D01*
G75*
G02*
X97983300Y94881600I249900J0D01*
G01*
X99183500Y94881600D01*
G75*
G02*
X99433400Y94631700I0J-249900D01*
G01*
X99433400Y93281500D01*
G75*
G02*
X99183500Y93031600I-249900J0D01*
G01*
X97983300Y93031600D01*
G75*
G02*
X97733400Y93281500I0J249900D01*
G01*
G37*
G04 #@! TD.AperFunction*
D18*
X101083400Y93956600D03*
G04 #@! TO.N,/WBO_H-*
X103583400Y93956600D03*
X106083400Y93956600D03*
G04 #@! TO.N,/WBO_R_Trim*
X108583400Y93956600D03*
G04 #@! TO.N,/WBO_Ip*
X111083400Y93956600D03*
G04 #@! TO.N,/WBO_Vs{slash}Ip*
X113583400Y93956600D03*
G04 #@! TO.N,/WBO_Vs*
X116083400Y93956600D03*
G04 #@! TD*
D17*
G04 #@! TO.N,N/C*
G04 #@! TO.C,J6*
X110500000Y55200000D03*
X114500000Y55200000D03*
X118500000Y55200000D03*
X122500000Y55200000D03*
X126500000Y55200000D03*
X130500000Y55200000D03*
X134500000Y55200000D03*
X138500000Y55200000D03*
X112500000Y51200000D03*
X116500000Y51200000D03*
X120500000Y51200000D03*
X124500000Y51200000D03*
X128500000Y51200000D03*
G04 #@! TO.N,GND*
X132500000Y51200000D03*
G04 #@! TO.N,N/C*
X136500000Y51200000D03*
X110500000Y47200000D03*
X114500000Y47200000D03*
X118500000Y47200000D03*
G04 #@! TO.N,GND*
X122500000Y47200000D03*
X126500000Y47200000D03*
G04 #@! TO.N,N/C*
X130500000Y47200000D03*
X134500000Y47200000D03*
G04 #@! TO.N,/12V_MR*
X138500000Y47200000D03*
G04 #@! TD*
G04 #@! TO.N,N/C*
G04 #@! TO.C,J4*
X170900000Y56500000D03*
X170900000Y60500000D03*
X170900000Y64500000D03*
X170900000Y68500000D03*
X170900000Y72500000D03*
X170900000Y76500000D03*
X170900000Y80500000D03*
X170900000Y84500000D03*
X170900000Y88500000D03*
X170900000Y92500000D03*
X170900000Y96500000D03*
X170900000Y100500000D03*
X174900000Y58500000D03*
X174900000Y62500000D03*
X174900000Y66500000D03*
X174900000Y70500000D03*
G04 #@! TO.N,GND*
X174900000Y74500000D03*
X174900000Y78500000D03*
G04 #@! TO.N,N/C*
X174900000Y82500000D03*
X174900000Y86500000D03*
X174900000Y90500000D03*
X174900000Y94500000D03*
X174900000Y98500000D03*
G04 #@! TO.N,GND*
X178900000Y56500000D03*
G04 #@! TO.N,N/C*
X178900000Y60500000D03*
X178900000Y64500000D03*
X178900000Y68500000D03*
X178900000Y72500000D03*
X178900000Y76500000D03*
X178900000Y80500000D03*
X178900000Y84500000D03*
X178900000Y88500000D03*
X178900000Y92500000D03*
X178900000Y96500000D03*
X178900000Y100500000D03*
G04 #@! TD*
D19*
G04 #@! TO.N,unconnected-(F2-Pad1)*
G04 #@! TO.C,F2*
X145403400Y75285600D03*
G04 #@! TO.N,/12V_MR*
X150303400Y75285600D03*
G04 #@! TD*
G04 #@! TO.N,unconnected-(F1-Pad1)*
G04 #@! TO.C,F1*
X129928400Y96401600D03*
G04 #@! TO.N,/12V_MR*
X134828400Y96401600D03*
G04 #@! TD*
M02*
